<?xml version="1.0" encoding="iso-8859-1"?>
<!-- Uploaded to: SVG Repo, www.svgrepo.com, Generator: SVG Repo Mixer Tools -->
<svg height="800px" width="800px" version="1.1" id="Layer_1" xmlns="http://www.w3.org/2000/svg" xmlns:xlink="http://www.w3.org/1999/xlink" 
	 viewBox="0 0 502.933 502.933" xml:space="preserve">
<path style="fill:#FF7474;" d="M227.574,476.48c-8.533-8.533-34.133-59.733-136.533-42.667c17.067-34.133,34.133-68.267,34.133-128
	c0-93.867-68.267-110.933-17.067-230.4c17.067-8.533,34.133,0,34.133,0s93.867,59.733,110.933,128V502.08
	C236.107,502.08,236.107,485.013,227.574,476.48z M278.773,476.48c-8.533,8.533-8.533,25.6-25.6,25.6V203.413
	c17.067-68.267,110.933-128,110.933-128s17.067-8.533,34.133,0c51.2,119.467-17.067,136.533-17.067,230.4
	c0,59.733,17.067,93.867,34.133,128C312.907,416.747,287.307,467.947,278.773,476.48z"/>
<path style="fill:#51565F;" d="M251.467,502.933c-13.653,0-18.773-9.387-23.04-17.92c-1.707-3.413-3.413-6.827-5.973-9.387
	c-0.853-0.853-2.56-2.56-4.267-4.267c-11.093-14.507-40.107-51.2-128.853-36.693c-1.707,0-3.413,0-4.267-1.707
	c-0.853-1.707-0.853-3.413,0-4.267c17.067-34.987,33.28-67.413,33.28-126.293c0-34.987-9.387-58.88-18.773-81.92
	C84.213,182.933,69.707,147.093,101.28,72L76.533,5.44c-0.853-2.56,0-4.267,2.56-5.12c2.56-0.853,4.267,0,5.12,2.56l25.6,68.267
	c0,0.853,0,2.56,0,3.413c-30.72,72.533-17.92,104.96-2.56,143.36c9.387,23.893,19.627,48.64,19.627,85.333
	c0,56.32-15.36,90.453-30.72,122.88c87.04-11.947,116.907,26.453,128.853,40.96c1.707,1.707,2.56,3.413,3.413,4.267
	c3.413,3.413,5.12,7.68,7.68,11.947c4.267,8.533,6.827,12.8,15.36,12.8s11.093-4.267,15.36-12.8
	c1.707-4.267,4.267-8.533,7.68-11.947c0.853-0.853,1.707-2.56,3.413-4.267c11.947-14.507,41.813-52.907,128.853-40.96
	c-15.36-31.573-30.72-66.56-30.72-122.88c0-36.693,10.24-61.44,19.627-85.333c15.36-38.4,29.013-70.827-2.56-143.36
	c-0.853-0.853-0.853-2.56,0-3.413l25.6-68.267c0.853-2.56,3.413-3.413,5.12-2.56c2.56,0.853,3.413,3.413,2.56,5.12L401.653,72
	c31.573,74.24,17.067,110.08,1.707,148.48c-9.387,23.04-18.773,46.933-18.773,81.92c0,58.88,16.213,91.307,33.28,126.293
	c0.853,1.707,0.853,3.413,0,4.267c-0.853,1.707-2.56,1.707-4.267,1.707c-88.747-14.507-117.76,23.04-128.853,36.693
	c-1.707,1.707-2.56,3.413-4.267,4.267c-2.56,2.56-4.267,5.973-5.973,9.387C270.24,493.547,265.12,502.933,251.467,502.933z
	 M251.467,451.733c-2.56,0-4.267-1.707-4.267-4.267V200.853C230.133,135.147,138.827,76.267,137.974,76.267
	c-1.707-0.853-2.56-4.267-1.707-5.973c0.853-1.707,4.267-2.56,5.973-1.707c3.413,2.56,84.48,54.613,108.373,117.76
	c24.747-63.147,104.96-115.2,108.373-117.76c1.707-0.853,4.267-0.853,5.973,1.707c0.853,1.707,0.853,4.267-1.707,5.973
	C362.4,77.12,271.093,136,254.027,200.853v246.613C255.733,450.027,254.027,451.733,251.467,451.733z M322.293,240.96
	c-5.973,0-12.8-0.853-20.48-2.56c-2.56-0.853-3.413-2.56-3.413-5.12c0.853-2.56,2.56-3.413,5.12-3.413
	c31.573,7.68,56.32-7.68,56.32-7.68c1.707-1.707,4.267-0.853,5.973,0.853c1.707,1.707,0.853,4.267-0.853,5.973
	C364.107,229.867,347.04,240.96,322.293,240.96z M189.173,240.96c-24.747,0-41.813-11.093-42.667-11.947
	c-1.707-1.707-2.56-4.267-0.853-5.973c1.707-1.707,4.267-2.56,5.973-0.853c0,0,24.747,16.213,56.32,7.68
	c2.56-0.853,4.267,0.853,5.12,3.413c0.853,2.56-0.853,4.267-3.413,5.12C202.827,240.107,196,240.96,189.173,240.96z"/>
</svg>