<?xml version="1.0" encoding="iso-8859-1"?>
<!-- Uploaded to: SVG Repo, www.svgrepo.com, Generator: SVG Repo Mixer Tools -->
<svg height="800px" width="800px" version="1.1" id="Layer_1" xmlns="http://www.w3.org/2000/svg" xmlns:xlink="http://www.w3.org/1999/xlink" 
	 viewBox="0 0 503.467 503.467" xml:space="preserve">
<g transform="translate(3 1)">
	<path style="fill:#C49AE9;" d="M359.667,378.733h-59.733c-5.12,0-8.533,4.267-8.533,8.533h-85.333c0-4.267-3.413-8.533-8.533-8.533
		H137.8H18.333V105.667c0-46.933,38.4-85.333,85.333-85.333H137.8c13.653,19.627,26.453,40.107,68.267,47.787
		c11.947,2.56,25.6,3.413,42.667,3.413s30.72-0.853,42.667-3.413c41.813-7.68,54.613-28.16,68.267-47.787H393.8
		c46.933,0,85.333,38.4,85.333,85.333v273.067H359.667L359.667,378.733z M291.4,191c-9.387,0-17.067,7.68-17.067,17.067
		s7.68,17.067,17.067,17.067s17.067-7.68,17.067-17.067S300.787,191,291.4,191L291.4,191z M206.067,165.4
		c-9.387,0-17.067,7.68-17.067,17.067s7.68,17.067,17.067,17.067s17.067-7.68,17.067-17.067S215.453,165.4,206.067,165.4z
		 M479.133,378.733v34.133c0,8.533,0,17.067-8.533,25.6l-51.2,51.2c-8.533,8.533-17.067,8.533-25.6,8.533h-93.867
		c-5.12,0-8.533-3.413-8.533-8.533v-34.133V421.4v-34.133c0-4.267,3.413-8.533,8.533-8.533h59.733H479.133z M206.067,455.533v34.133
		c0,4.267-3.413,8.533-8.533,8.533h-93.867c-8.533,0-17.067,0-25.6-8.533l-51.2-51.2c-8.533-8.533-8.533-17.067-8.533-25.6v-34.133
		H137.8h59.733c5.12,0,8.533,4.267,8.533,8.533V421.4V455.533z"/>
	<path style="fill:#AAB1BA;" d="M342.6,3.267c9.387,0,17.067,7.68,17.067,17.067l0,0C346.013,39.96,333.213,60.44,291.4,68.12
		c-11.947,2.56-25.6,3.413-42.667,3.413s-30.72-1.707-42.667-3.413c-41.813-7.68-54.613-28.16-68.267-47.787
		c0,0,0-17.067,17.067-17.067H342.6L342.6,3.267z"/>
	<g>
		<path style="fill:#FFE079;" d="M206.067,455.533H291.4V421.4h-85.333V455.533z M206.067,421.4H291.4v-34.133h-85.333V421.4z
			 M206.067,489.667H291.4v-34.133h-85.333V489.667z"/>
		<path style="fill:#FFE079;" d="M206.067,165.4c9.387,0,17.067,7.68,17.067,17.067s-7.68,17.067-17.067,17.067
			S189,191.853,189,182.467S196.68,165.4,206.067,165.4z M291.4,191c9.387,0,17.067,7.68,17.067,17.067s-7.68,17.067-17.067,17.067
			s-17.067-7.68-17.067-17.067S282.013,191,291.4,191z"/>
	</g>
</g>
<path style="fill:#51565F;" d="M396.8,503.467h-93.867c-5.973,0-10.24-3.413-11.947-8.533H212.48
	c-1.707,5.12-6.827,8.533-11.947,8.533h-93.867c-8.533,0-18.773,0-29.013-9.387l-51.2-51.2c-9.387-9.387-9.387-19.627-9.387-29.013
	v-307.2c0-49.493,40.107-89.6,89.6-89.6h30.72C139.093,9.387,144.213,0,157.867,0h179.2c2.56,0,4.267,1.707,4.267,4.267
	s-1.707,4.267-4.267,4.267h-179.2c-10.24,0-12.8,7.68-12.8,11.947c12.8,18.773,25.6,37.547,64,44.373h0.853
	c11.093,1.707,24.747,3.413,41.813,3.413c16.213,0,29.867-0.853,41.813-3.413h0.853c39.253-7.68,52.053-26.453,64.853-46.08
	c0.853-0.853,1.707-1.707,3.413-1.707H396.8c49.493,0,89.6,40.107,89.6,89.6v307.2c0,8.533,0,18.773-9.387,29.013l-51.2,51.2
	C415.573,503.467,405.333,503.467,396.8,503.467z M298.667,456.533v34.133c0,2.56,1.707,4.267,4.267,4.267H396.8
	c8.533,0,15.36,0,22.187-7.68l51.2-51.2c7.68-7.68,7.68-14.507,7.68-22.187v-307.2c0-44.373-36.693-81.067-81.067-81.067h-31.573
	c-12.8,19.627-27.307,38.4-66.56,46.933v115.2c9.387,1.707,17.067,10.24,17.067,20.48c0,11.947-9.387,21.333-21.333,21.333
	c-11.947,0-21.333-9.387-21.333-21.333c0-10.24,7.68-18.773,17.067-20.48V73.387c-11.093,1.707-23.893,2.56-38.4,2.56
	c-14.507,0-27.307-0.853-38.4-2.56v88.747c9.387,1.707,17.067,10.24,17.067,20.48c0,11.947-9.387,21.333-21.333,21.333
	c-11.947,0-21.333-9.387-21.333-21.333c0-10.24,7.68-18.773,17.067-20.48v-89.6C165.547,64,151.04,45.227,138.24,25.6h-31.573
	C62.293,25.6,25.6,62.293,25.6,106.667v307.2c0,8.533,0,15.36,7.68,22.187l51.2,51.2c7.68,7.68,14.507,7.68,22.187,7.68h93.867
	c2.56,0,4.267-2.56,4.267-4.267v-102.4c0-2.56-1.707-4.267-4.267-4.267H55.467c-2.56,0-4.267-1.707-4.267-4.267
	c0-2.56,1.707-4.267,4.267-4.267h81.067v-166.4c0-2.56,1.707-4.267,4.267-4.267c2.56,0,4.267,1.707,4.267,4.267v166.4h55.467
	c5.973,0,10.24,3.413,11.947,8.533h78.507c1.707-5.12,6.827-8.533,11.947-8.533H358.4v-166.4c0-2.56,1.707-4.267,4.267-4.267
	s4.267,1.707,4.267,4.267v166.4H448c2.56,0,4.267,1.707,4.267,4.267c0,2.56-1.707,4.267-4.267,4.267H302.933
	c-2.56,0-4.267,1.707-4.267,4.267L298.667,456.533L298.667,456.533z M213.333,486.4h76.8v-25.6h-76.8V486.4z M213.333,452.267h76.8
	v-25.6h-76.8V452.267z M213.333,418.133h76.8v-25.6h-76.8V418.133z M294.4,196.267c-6.827,0-12.8,5.973-12.8,12.8
	c0,6.827,5.973,12.8,12.8,12.8s12.8-5.973,12.8-12.8C307.2,202.24,301.227,196.267,294.4,196.267z M209.067,170.667
	c-6.827,0-12.8,5.973-12.8,12.8s5.973,12.8,12.8,12.8s12.8-5.973,12.8-12.8S215.893,170.667,209.067,170.667z"/>
</svg>