<?xml version="1.0" encoding="iso-8859-1"?>
<!-- Uploaded to: SVG Repo, www.svgrepo.com, Generator: SVG Repo Mixer Tools -->
<svg height="800px" width="800px" version="1.1" id="Layer_1" xmlns="http://www.w3.org/2000/svg" xmlns:xlink="http://www.w3.org/1999/xlink" 
	 viewBox="0 0 504.32 504.32" xml:space="preserve">
<g transform="translate(1 1)">
	<path style="fill:#AAB1BA;" d="M412.013,80.066h85.333V191c-51.2,0-102.4-34.133-102.4-85.333v-25.6H412.013z M87.746,80.066
		h16.213c0,2.56,0.853,5.12,0.853,8.533c0,24.747-8.533,47.787-23.04,64.853C62.999,176.493,34.84,191,3.266,191V80.066H87.746z"/>
	<path style="fill:#AE938D;" d="M497.346,45.933v34.133h-85.333V11.8h51.2C481.986,11.8,497.346,27.16,497.346,45.933z
		 M87.746,80.066V11.8h102.4v68.267H103.96H87.746z M87.746,11.8v68.267H2.413V45.933c0-18.773,15.36-34.133,34.133-34.133H87.746z
		 M412.013,11.8v68.267h-17.067h-85.333V11.8H412.013z"/>
	<g>
		<path style="fill:#80D6FA;" d="M249.88,127v38.4l-0.853,5.12l43.52,3.413l-17.067,81.92l-11.947,54.613h232.96l0,0V191
			c-51.2,0-102.4-34.133-102.4-85.333v-25.6H308.76c0,4.267-3.413,8.533-8.533,8.533h-51.2V127V88.6h-51.2
			c-5.12,0-8.533-4.267-8.533-8.533h-86.187c0,2.56,0.853,5.12,0.853,8.533c0,24.747-8.533,47.787-23.04,64.853l6.827,3.413
			l161.28,13.653l0.853-5.12V127z M497.346,310.466V344.6c0,17.067-8.533,34.133-25.6,51.2l-76.8,76.8
			c-17.067,17.067-34.133,25.6-51.2,25.6H224.28l39.253-187.733H497.346L497.346,310.466z M75.8,219.16L21.186,494.786
			c-11.093-5.12-18.773-17.067-18.773-30.72V190.999l0,0c31.573,0,60.587-14.507,78.507-37.547l6.827,3.413L75.8,219.16z"/>
		<path style="fill:#80D6FA;" d="M275.48,255.853l-11.947,54.613L224.28,498.2H36.546c-5.973,0-11.093-0.853-15.36-3.413
			L75.8,219.16L275.48,255.853z"/>
		<polygon style="fill:#80D6FA;" points="292.546,173.933 275.48,255.853 75.8,219.16 87.746,139.8 		"/>
	</g>
	<path style="fill:#ECF4F7;" d="M309.613,11.8v68.267c0,4.267-3.413,8.533-8.533,8.533h-51.2h-51.2c-5.12,0-8.533-4.267-8.533-8.533
		V11.8c0-5.12,3.413-8.533,8.533-8.533h102.4C306.2,3.266,309.613,6.68,309.613,11.8"/>
</g>
<path style="fill:#51565F;" d="M344.746,503.466h-85.333c-2.56,0-4.267-1.707-4.267-4.267s1.707-4.267,4.267-4.267h85.333
	c16.213,0,32.427-8.533,47.787-24.747l76.8-76.8c16.213-16.213,24.747-32.427,24.747-47.787V196.266
	c-50.347-1.707-102.4-35.84-102.4-89.6V85.333h-77.653c-1.707,5.12-6.827,8.533-11.947,8.533h-46.933v69.973l39.253,6.827
	c0.853,0,2.56,0.853,2.56,1.707c0.853,0.853,0.853,2.56,0.853,3.413l-17.067,81.92l0,0l-10.24,49.493h194.56
	c2.56,0,4.267,1.707,4.267,4.267c0,2.56-1.707,4.267-4.267,4.267H268.8l-38.4,184.32c0,1.707-2.56,3.413-4.267,3.413H38.4
	c-21.333,0-38.4-17.067-38.4-38.4V192c0-2.56,1.707-4.267,4.267-4.267c16.213,0,31.573-2.56,40.96-7.68
	c1.707-0.853,4.267,0,5.973,1.707c0.853,1.707,0,4.267-1.707,5.973c-12.8,6.827-29.013,8.533-40.107,9.387v267.946
	c0,17.067,12.8,29.867,29.867,29.867h184.32l49.493-234.667l-166.4-29.867c-1.707,0-3.413-2.56-3.413-4.267v-0.853
	c0-2.56,2.56-4.267,5.12-3.413l166.4,29.867l15.36-73.387L93.867,145.92L43.52,414.72v0.853c0,0.853-0.853,0.853-0.853,1.707
	c-0.853,0-0.853,0.853-1.707,0.853c-0.853,0-0.853,0-1.707,0s-0.853,0-1.707,0s-0.853-0.853-1.707-0.853
	c0-0.853-0.853-0.853-0.853-1.707l0,0l0,0v-0.853v-17.067c0-2.56,1.707-4.267,4.267-4.267L86.186,140.8
	c0.853-2.56,2.56-3.413,5.12-3.413L248.32,163.84V94.72h-46.933c-6.827,0-12.8-5.973-12.8-12.8v-64H94.72v59.733h64
	c2.56,0,4.267,1.707,4.267,4.267c0,2.56-1.707,4.267-4.267,4.267h-46.933v21.333c0,2.56-1.707,4.267-4.267,4.267
	c-2.56,0-4.267-1.707-4.267-4.267V86.186H9.386v72.533c0,2.56-1.707,4.267-4.267,4.267s-4.267-1.707-4.267-4.267V47.786
	c0-21.333,17.067-38.4,38.4-38.4H189.44c1.707-5.12,6.827-8.533,11.947-8.533h102.4c6.827,0,12.8,5.973,12.8,12.8v64h93.867V17.92
	h-64c-2.56,0-4.267-1.707-4.267-4.267s1.707-4.267,4.267-4.267H465.92c21.333,0,38.4,17.067,38.4,38.4V158.72
	c0,2.56-1.707,4.267-4.267,4.267s-4.267-1.707-4.267-4.267V86.186H401.92v21.333c0,50.347,51.2,81.067,98.133,81.067
	c2.56,0,4.267,1.707,4.267,4.267v153.6c0,17.92-9.387,36.693-26.453,54.613l-76.8,76.8
	C381.44,494.08,362.666,503.466,344.746,503.466z M250.88,85.333h51.2c2.56,0,4.267-1.707,4.267-4.267V12.8
	c0-2.56-1.707-4.267-4.267-4.267h-102.4c-2.56,0-4.267,1.707-4.267,4.267v68.267c0,2.56,1.707,4.267,4.267,4.267H250.88z
	 M417.28,76.8h76.8V46.933c0-16.213-13.653-29.867-29.867-29.867H417.28V76.8z M7.68,76.8h76.8V17.066H37.546
	C21.333,17.066,7.68,30.72,7.68,46.933V76.8z M37.546,366.933c-2.56,0-4.267-1.707-4.267-4.267v-8.533
	c0-2.56,1.707-4.267,4.267-4.267s4.267,1.707,4.267,4.267v8.533C41.813,365.226,40.106,366.933,37.546,366.933z M37.546,324.266
	c-2.56,0-4.267-1.707-4.267-4.267v-8.533c0-2.56,1.707-4.267,4.267-4.267s4.267,1.707,4.267,4.267V320
	C41.813,322.56,40.106,324.266,37.546,324.266z M464.213,281.6c-2.56,0-4.267-1.707-4.267-4.267V268.8
	c0-2.56,1.707-4.267,4.267-4.267s4.267,1.707,4.267,4.267v8.533C468.48,279.893,466.773,281.6,464.213,281.6z M37.546,281.6
	c-2.56,0-4.267-1.707-4.267-4.267V268.8c0-2.56,1.707-4.267,4.267-4.267s4.267,1.707,4.267,4.267v8.533
	C41.813,279.893,40.106,281.6,37.546,281.6z M464.213,238.933c-2.56,0-4.267-1.707-4.267-4.267v-8.533
	c0-2.56,1.707-4.267,4.267-4.267s4.267,1.707,4.267,4.267v8.533C468.48,237.226,466.773,238.933,464.213,238.933z M37.546,238.933
	c-2.56,0-4.267-1.707-4.267-4.267v-8.533c0-2.56,1.707-4.267,4.267-4.267s4.267,1.707,4.267,4.267v8.533
	C41.813,237.226,40.106,238.933,37.546,238.933z M250.88,59.733c-6.827,0-12.8-5.973-12.8-12.8s5.973-12.8,12.8-12.8
	s12.8,5.973,12.8,12.8S257.706,59.733,250.88,59.733z M250.88,42.666c-2.56,0-4.267,1.707-4.267,4.267s1.707,4.267,4.267,4.267
	s4.267-1.707,4.267-4.267S253.44,42.666,250.88,42.666z"/>
</svg>