<?xml version="1.0" encoding="iso-8859-1"?>
<!-- Uploaded to: SVG Repo, www.svgrepo.com, Generator: SVG Repo Mixer Tools -->
<svg height="800px" width="800px" version="1.1" id="Layer_1" xmlns="http://www.w3.org/2000/svg" xmlns:xlink="http://www.w3.org/1999/xlink" 
	 viewBox="0 0 512 512" xml:space="preserve">
<g transform="translate(1 1)">
	<path style="fill:#FFD0A1;" d="M254.311,82.377L349.43,4.58l34.543,34.543l-95.119,77.797L254.311,82.377l-34.543,34.543
		L124.65,39.123L159.192,4.58L254.311,82.377z M74.507,223.282l-36.265,6.078L3.599,91.088l34.543-17.322L74.507,223.282z
		 M504.922,91.088L470.38,229.36l-37.176-6.078l0,0L470.38,73.766L504.922,91.088z"/>
	<path style="fill:#FFE079;" d="M383.972,39.224c17.322,0,34.543,8.61,51.865,17.322l34.543,17.221l-37.176,149.516l0,0
		l-14.688-2.634v250.712c0,19.044-15.6,34.543-34.543,34.543H124.65c-19.044,0-34.543-15.6-34.543-34.543V220.75l-15.6,2.634
		L38.142,73.766l34.543-17.322c17.322-8.61,34.543-17.322,51.865-17.322l95.119,77.797l34.543-34.543l34.543,34.543L383.972,39.224
		L383.972,39.224z"/>
</g>
<path style="fill:#51565F;" d="M384.972,511.258H125.65c-21.576,0-38.898-17.322-38.898-38.898V226.915l-46.698,7.8
	c-2.634,0-4.356-0.912-5.166-3.444L0.243,92.898c-0.912-1.722,0.912-4.356,2.634-5.166L37.419,70.41l0,0l34.543-17.322
	c17.322-8.61,34.543-17.322,51.865-17.322l33.732-33.732c1.722-1.722,4.356-1.722,6.078,0l92.485,75.163l92.485-75.163
	c1.722-1.722,4.356-0.912,6.078,0l33.732,33.732c17.322,0.912,35.454,9.522,51.865,17.322l34.543,17.322l0,0l34.543,17.322
	c1.722,0.912,2.634,2.634,2.634,5.166l-34.543,138.272c-0.912,2.634-2.634,3.444-5.166,3.444l-46.698-7.8v245.445
	C423.871,494.037,406.549,511.258,384.972,511.258z M91.006,217.394c0.912,0,1.722,0,2.634,0.912
	c0.912,0.912,1.722,1.722,1.722,3.444v250.712c0,16.41,13.878,30.288,30.288,30.288h259.323c16.41,0,30.288-13.878,30.288-30.288
	V221.75c0-0.912,0.912-2.634,1.722-3.444c0.912-0.912,2.634-0.912,3.444-0.912l47.509,7.8l32.82-131.383l-26.743-12.966
	l-28.566,115.783c-0.912,2.634-2.634,3.444-5.166,3.444c-1.722-0.912-3.444-2.634-3.444-4.356v-0.912l29.376-117.607l-31.098-15.6
	c-17.322-8.408-33.732-16.208-50.142-16.208l0,0l0,0l0,0l0,0l0,0l0,0c-0.912,0-0.912,0-1.722,0c-0.912,0-0.912-0.912-1.722-0.912
	l0,0l0,0l0,0l0,0l0,0l-32.01-32.01l-88.129,72.631l28.566,28.566l65.742-57.942c1.722-1.722,4.356-1.722,6.078,0
	c1.722,1.722,1.722,4.356,0,6.078l-69.288,60.475c-1.722,1.722-4.356,1.722-6.078,0l-26.844-26.844v117.607
	c0,2.634-1.722,4.356-4.356,4.356s-4.356-1.722-4.356-4.356V93.81l-26.844,26.844c-1.722,1.722-4.356,1.722-6.078,0L148.746,60.18
	c-1.722-1.722-1.722-4.356,0-6.078s4.356-1.722,6.078,0l65.742,57.942l28.566-28.566l-88.129-72.631l-32.01,32.01l0,0l0,0l0,0l0,0
	c0,0-0.912,0.912-1.722,0.912c-0.912,0-0.912,0-1.722,0l0,0l0,0l0,0l0,0l0,0c-16.41,0-32.821,7.8-50.142,16.41L44.308,75.678
	l29.376,117.607v0.912c0,1.722-1.722,3.444-3.444,4.356c-2.634,0.912-4.356-0.912-5.166-3.444L36.609,79.122L9.765,92.088
	l32.821,131.383L91.006,217.394C90.196,217.394,91.006,217.394,91.006,217.394z M285.498,217.394c-5.166,0-8.61-3.444-8.61-8.61
	s3.444-8.61,8.61-8.61s8.61,3.444,8.61,8.61S290.664,217.394,285.498,217.394z M285.498,156.919c-5.166,0-8.61-3.444-8.61-8.61
	c0-5.166,3.444-8.61,8.61-8.61s8.61,3.444,8.61,8.61C294.108,153.475,290.664,156.919,285.498,156.919z"/>
</svg>