<?xml version="1.0" encoding="iso-8859-1"?>
<!-- Uploaded to: SVG Repo, www.svgrepo.com, Generator: SVG Repo Mixer Tools -->
<svg height="800px" width="800px" version="1.1" id="Layer_1" xmlns="http://www.w3.org/2000/svg" xmlns:xlink="http://www.w3.org/1999/xlink" 
	 viewBox="0 0 503.467 503.467" xml:space="preserve">
<g transform="translate(1 1)">
	<path style="fill:#ECF4F7;" d="M353.533,236.227c69.973,11.947,128,71.68,128,142.507v34.133h-307.2v-34.133
		c0-31.573,11.947-61.44,30.72-85.333c15.36-19.627,36.693-35.84,59.733-46.08c11.947-5.12,24.747-9.387,37.547-11.093
		c8.533-1.707,17.067-2.56,25.6-2.56C336.466,233.667,345,234.52,353.533,236.227"/>
	<g>
		<path style="fill:#7EE1E6;" d="M396.2,498.2h-34.133h-34.133H293.8h-34.133h-34.133H191.4h-17.067
			c-9.387,0-17.067-7.68-17.067-17.067v-17.067v-34.133c0-9.387,7.68-17.067,17.067-17.067h307.2c9.387,0,17.067,7.68,17.067,17.067
			v51.2c0,9.387-7.68,17.067-17.067,17.067h-17.067h-34.133H396.2z"/>
		<path style="fill:#7EE1E6;" d="M106.066,293.4h98.987c-18.773,23.893-30.72,53.76-30.72,85.333v34.133
			c-9.387,0-17.067,7.68-17.067,17.067v34.133h-102.4v-34.133V395.8v-34.133v-34.133V293.4H106.066z M191.4,173.933l73.387,73.387
			c-23.04,10.24-44.373,26.453-59.733,46.08h-98.987l-85.333-85.333C12.2,199.533,3.666,191,3.666,173.933s8.533-25.6,17.067-34.133
			l128-128c8.533-8.533,25.6-8.533,25.6-8.533h187.733V37.4v34.133v34.133V139.8v34.133H191.4z"/>
		<path style="fill:#7EE1E6;" d="M327.933,208.067c13.653,0,25.6,11.093,25.6,25.6c0,0.853,0,1.707,0,2.56
			c-8.533-1.707-17.067-2.56-25.6-2.56c-8.533,0-17.067,0.853-25.6,2.56c0-0.853,0-1.707,0-2.56
			C302.333,219.16,313.426,208.067,327.933,208.067"/>
	</g>
</g>
<path style="fill:#51565F;" d="M482.533,503.467h-307.2c-11.947,0-21.333-9.387-21.333-21.333v-51.2
	c0-11.947,9.387-21.333,21.333-21.333H448.4c2.56,0,4.267,1.707,4.267,4.267c0,2.56-1.707,4.267-4.267,4.267H175.333
	c-6.827,0-12.8,5.973-12.8,12.8v51.2c0,6.827,5.973,12.8,12.8,12.8h12.8V448c0-2.56,1.707-4.267,4.267-4.267
	s4.267,1.707,4.267,4.267v46.933h25.6V448c0-2.56,1.707-4.267,4.267-4.267S230.8,445.44,230.8,448v46.933h25.6V448
	c0-2.56,1.707-4.267,4.267-4.267s4.267,1.707,4.267,4.267v46.933h25.6V448c0-2.56,1.707-4.267,4.267-4.267s4.267,1.707,4.267,4.267
	v46.933h25.6V448c0-2.56,1.707-4.267,4.267-4.267c2.56,0,4.267,1.707,4.267,4.267v46.933h25.6V448c0-2.56,1.707-4.267,4.267-4.267
	s4.267,1.707,4.267,4.267v46.933h25.6V448c0-2.56,1.707-4.267,4.267-4.267s4.267,1.707,4.267,4.267v46.933h25.6V448
	c0-2.56,1.707-4.267,4.267-4.267S435.6,445.44,435.6,448v46.933h25.6V448c0-2.56,1.707-4.267,4.267-4.267s4.267,1.707,4.267,4.267
	v46.933h12.8c6.827,0,12.8-5.973,12.8-12.8v-51.2c0-6.827-5.973-12.8-12.8-12.8c-2.56,0-4.267-1.707-4.267-4.267v-34.133
	c0-75.093-69.973-140.8-149.333-140.8c-7.68,0-15.36,0.853-23.893,1.707c-0.853,0-0.853,0-1.707,0.853h-0.853
	c-68.267,11.947-123.733,71.68-123.733,138.24c0,2.56-1.707,4.267-4.267,4.267s-4.267-1.707-4.267-4.267
	c0-71.68,56.32-133.12,128-146.773c0.853-16.213,13.653-28.16,29.867-28.16s29.013,12.8,29.867,28.16
	c71.68,13.653,128,75.093,128,146.773V409.6c9.387,1.707,17.067,10.24,17.067,21.333v51.2
	C503.866,494.08,494.48,503.467,482.533,503.467z M328.933,230.4c6.827,0,14.507,0.853,21.333,1.707
	c-1.707-10.24-10.24-18.773-21.333-18.773c-11.093,0-19.627,7.68-21.333,18.773C314.426,231.253,322.106,230.4,328.933,230.4z
	 M124.133,469.333H4.666c-2.56,0-4.267-1.707-4.267-4.267c0-2.56,1.707-4.267,4.267-4.267H51.6v-25.6H4.666
	c-2.56,0-4.267-1.707-4.267-4.267c0-2.56,1.707-4.267,4.267-4.267H51.6v-25.6H4.666c-2.56,0-4.267-1.707-4.267-4.267
	s1.707-4.267,4.267-4.267H51.6v-25.6H4.666c-2.56,0-4.267-1.707-4.267-4.267s1.707-4.267,4.267-4.267H51.6v-25.6H4.666
	c-2.56,0-4.267-1.707-4.267-4.267c0-2.56,1.707-4.267,4.267-4.267H51.6v-25.6H4.666c-2.56,0-4.267-1.707-4.267-4.267
	c0-2.56,1.707-4.267,4.267-4.267h153.6c2.56,0,4.267,1.707,4.267,4.267c0,2.56-1.707,4.267-4.267,4.267H60.133V460.8h64
	c2.56,0,4.267,1.707,4.267,4.267C128.4,467.627,126.693,469.333,124.133,469.333z M72.933,264.533c-0.853,0-2.56,0-3.413-0.853
	l-51.2-51.2C9.786,203.947,0.4,194.56,0.4,174.933s9.387-28.16,17.92-37.547l128-128C155.707,0,174.48,0,175.333,0h238.933
	c2.56,0,4.267,1.707,4.267,4.267s-1.707,4.267-4.267,4.267h-46.933v25.6h46.933c2.56,0,4.267,1.707,4.267,4.267
	s-1.707,4.267-4.267,4.267h-46.933v25.6h46.933c2.56,0,4.267,1.707,4.267,4.267c0,2.56-1.707,4.267-4.267,4.267h-46.933v25.6h46.933
	c2.56,0,4.267,1.707,4.267,4.267s-1.707,4.267-4.267,4.267h-46.933v25.6h46.933c2.56,0,4.267,1.707,4.267,4.267
	c0,2.56-1.707,4.267-4.267,4.267h-46.933v25.6h46.933c2.56,0,4.267,1.707,4.267,4.267c0,2.56-1.707,4.267-4.267,4.267H202.64
	l43.52,43.52c1.707,1.707,1.707,4.267,0,5.973c-1.707,1.707-4.267,1.707-5.973,0l-50.347-50.347H38.8
	c-2.56,0-4.267-1.707-4.267-4.267s1.707-4.267,4.267-4.267h153.6c0,0,0,0,0.853,0h166.4V7.68h-184.32c0,0-15.36,0-22.187,7.68
	l-128,128c-8.533,8.533-16.213,16.213-16.213,30.72s7.68,23.04,16.213,30.72l51.2,51.2c1.707,1.707,1.707,4.267,0,5.973
	C75.493,264.533,73.786,264.533,72.933,264.533z"/>
</svg>