<?xml version="1.0" encoding="iso-8859-1"?>
<!-- Uploaded to: SVG Repo, www.svgrepo.com, Generator: SVG Repo Mixer Tools -->
<svg height="800px" width="800px" version="1.1" id="Layer_1" xmlns="http://www.w3.org/2000/svg" xmlns:xlink="http://www.w3.org/1999/xlink" 
	 viewBox="0 0 504.747 504.747" xml:space="preserve">
<g transform="translate(3 1)">
	<path style="fill:#E4F2DE;" d="M341.96,4.546l-93.867,76.8l34.133,34.133l93.867-76.8L341.96,4.546z M248.093,81.346
		l-17.067,17.067L213.96,115.48l-93.867-76.8l34.133-34.133L248.093,81.346z"/>
	<path style="fill:#7EE1E6;" d="M188.36,397.08v102.4h-85.333c-8.533,0-17.067,0-25.6-8.533l-51.2-51.2
		c-8.533-8.533-8.533-17.067-8.533-25.6V397.08h102.4H188.36z M120.093,397.08h-102.4V98.413c0-19.627,14.507-36.693,34.133-42.667
		l68.267-17.067l93.867,76.8l17.067-17.067V397.08H188.36H120.093z M478.493,397.08v17.067c0,8.533,0,17.067-8.533,25.6l-51.2,51.2
		c-8.533,8.533-17.067,8.533-25.6,8.533h-204.8v-102.4h42.667h145.067H478.493z M376.093,38.68l68.267,17.067
		c15.36,5.12,34.133,23.04,34.133,42.667V397.08h-102.4H231.027V98.413l17.067-17.067l34.133,34.133L376.093,38.68L376.093,38.68z"
		/>
	<polygon style="fill:#E4F2DE;" points="376.093,209.346 376.093,277.613 341.96,294.68 307.827,277.613 307.827,209.346 	"/>
</g>
<path style="fill:#51565F;" d="M396.16,504.747h-204.8c-2.56,0-4.267-1.707-4.267-4.267v-102.4c0-2.56,1.707-4.267,4.267-4.267h38.4
	v-284.16l-9.387,9.387c-1.707,1.707-4.267,1.707-5.973,0l-68.267-59.733c-1.707-1.707-1.707-4.267,0-5.973s4.267-1.707,5.973,0
	l64.853,57.173L231.467,96l0,0l13.653-13.653l-87.04-71.68L126.507,42.24c-0.853,0.853-0.853,0.853-1.707,0.853L56.534,60.16
	c-17.92,5.973-30.72,21.333-30.72,38.4v315.733c0,8.533,0,15.36,7.68,22.187l51.2,51.2c7.68,7.68,14.507,7.68,22.187,7.68h51.2
	c2.56,0,4.267,1.707,4.267,4.267c0,2.56-1.707,4.267-4.267,4.267h-51.2c-8.533,0-18.773,0-29.013-9.387l-51.2-51.2
	c-9.387-9.387-9.387-19.627-9.387-29.013V98.56c0-20.48,15.36-40.107,36.693-46.933l67.413-17.067l33.28-33.28
	c1.707-1.707,4.267-1.707,5.973,0l91.307,74.24l91.307-74.24c1.707-1.707,4.267-0.853,5.973,0l33.28,33.28l67.413,17.067
	c18.773,6.827,37.547,25.6,37.547,46.933v315.733c0,8.533,0,18.773-9.387,29.013l-51.2,51.2
	C414.933,504.747,404.693,504.747,396.16,504.747z M195.627,496.213H396.16c8.533,0,15.36,0,22.187-7.68l51.2-51.2
	c7.68-7.68,7.68-14.507,7.68-22.187V99.413c0-17.067-16.213-33.28-31.573-38.4l-68.267-17.067c-0.853,0-1.707-0.853-1.707-0.853
	L344.107,11.52l-87.04,71.68l28.16,28.16l64.853-57.173c1.707-1.707,4.267-1.707,5.973,0c1.707,1.707,1.707,4.267,0,5.973
	l-68.267,59.733c-1.707,1.707-4.267,1.707-5.973,0l-30.72-30.72l-12.8,12.8v292.693h136.533V286.293l-28.16,13.653
	c-0.853,0.853-2.56,0.853-3.413,0l-34.133-17.067c-1.707-0.853-2.56-2.56-2.56-3.413v-68.267c0-2.56,1.707-4.267,4.267-4.267h68.267
	c2.56,0,4.267,1.707,4.267,4.267v183.467h64c2.56,0,4.267,1.707,4.267,4.267c0,2.56-1.707,4.267-4.267,4.267H195.627
	L195.627,496.213L195.627,496.213z M315.093,276.053l29.867,15.36l29.867-15.36v-61.44h-59.733V276.053z M157.227,402.346h-102.4
	c-2.56,0-4.267-1.707-4.267-4.267s1.707-4.267,4.267-4.267h64V210.346c0-2.56,1.707-4.267,4.267-4.267s4.267,1.707,4.267,4.267
	v183.467h29.867c2.56,0,4.267,1.707,4.267,4.267S159.787,402.346,157.227,402.346z M263.893,351.147
	c-5.12,0-8.533-3.413-8.533-8.533s3.413-8.533,8.533-8.533s8.533,3.413,8.533,8.533S269.013,351.147,263.893,351.147z
	 M263.893,291.413c-5.12,0-8.533-3.413-8.533-8.533s3.413-8.533,8.533-8.533s8.533,3.413,8.533,8.533
	S269.013,291.413,263.893,291.413z M263.893,231.68c-5.12,0-8.533-3.413-8.533-8.533s3.413-8.533,8.533-8.533
	s8.533,3.413,8.533,8.533S269.013,231.68,263.893,231.68z M263.893,171.946c-5.12,0-8.533-3.413-8.533-8.533
	s3.413-8.533,8.533-8.533s8.533,3.413,8.533,8.533S269.013,171.946,263.893,171.946z"/>
</svg>