<?xml version="1.0" encoding="iso-8859-1"?>
<!-- Uploaded to: SVG Repo, www.svgrepo.com, Generator: SVG Repo Mixer Tools -->
<svg height="800px" width="800px" version="1.1" id="Layer_1" xmlns="http://www.w3.org/2000/svg" xmlns:xlink="http://www.w3.org/1999/xlink" 
	 viewBox="0 0 505.4 505.4" xml:space="preserve">
<g transform="translate(1 1)">
	<path style="fill:#ECF4F7;" d="M3.494,89.78l34.133,136.533l36.693-5.973L37.627,72.713L3.494,89.78z M344.827,4.447L378.96,38.58
		l-93.867,76.8L250.96,81.247L344.827,4.447z M498.427,89.78l-34.133,136.533L427.6,220.34l0,0l36.693-147.627L498.427,89.78z
		 M250.96,81.247l-17.067,17.067l-17.067,17.067l-93.867-76.8l34.133-34.133L250.96,81.247z"/>
	<path style="fill:#80D6FA;" d="M378.96,38.58c17.067,0,34.133,8.533,51.2,17.067l34.133,17.067L427.6,220.34l0,0l-14.507-2.56
		v247.467c0,18.773-15.36,34.133-34.133,34.133H233.894V98.313l17.067-17.067l34.133,34.133L378.96,38.58L378.96,38.58z
		 M233.894,98.313V499.38H122.96c-18.773,0-34.133-15.36-34.133-34.133V217.78l-15.36,2.56L37.627,72.713L71.76,55.647
		c17.067-8.533,34.133-17.067,51.2-17.067l0,0l93.867,76.8L233.894,98.313z"/>
	<polygon style="fill:#ECF4F7;" points="378.96,209.247 378.96,277.513 344.827,294.58 310.694,277.513 310.694,209.247 	"/>
</g>
<path style="fill:#51565F;" d="M379.96,504.647h-256c-21.333,0-38.4-17.067-38.4-38.4V223.9l-46.08,7.68
	c-2.56,0-4.267-0.853-5.12-3.413L0.227,91.633c-0.853-1.707,0.853-4.267,2.56-5.12L36.92,69.447l0,0L71.054,52.38
	c17.067-8.533,34.133-17.067,51.2-17.067l33.28-33.28c1.707-1.707,4.267-1.707,5.973,0l91.307,74.24l91.307-74.24
	c1.707-1.707,4.267-0.853,5.973,0l33.28,33.28c17.067,0.853,34.987,9.387,51.2,17.067l34.133,17.067l0,0l34.133,17.067
	c1.707,0.853,2.56,2.56,2.56,5.12l-34.133,136.533c-0.853,2.56-2.56,3.413-5.12,3.413l-46.08-7.68v242.347
	C418.36,487.58,401.294,504.647,379.96,504.647z M239.16,496.113h140.8c16.213,0,29.867-13.653,29.867-29.867V218.78
	c0-0.853,0.853-2.56,1.707-3.413c0.853-0.853,2.56-0.853,3.413-0.853l46.933,7.68l32.427-129.707l-26.453-12.8l-28.16,114.347
	c-0.853,2.56-2.56,3.413-5.12,3.413c-1.707-0.853-3.413-2.56-3.413-4.267v-0.853l29.013-116.053l-30.72-15.36
	C412.387,52.38,396.173,44.7,379.96,44.7l0,0l0,0l0,0l0,0l0,0l0,0c-0.853,0-0.853,0-1.707,0c-0.853,0-0.853-0.853-1.707-0.853l0,0
	l0,0l0,0l0,0l0,0l-31.573-31.573l-87.04,71.68l28.16,28.16l64.853-57.173c1.707-1.707,4.267-1.707,5.973,0
	c1.707,1.707,1.707,4.267,0,5.973l-68.267,59.733c-1.707,1.707-4.267,1.707-5.973,0l-30.72-30.72l-12.8,12.8L239.16,496.113
	L239.16,496.113z M89.827,214.513c0.853,0,1.707,0,2.56,0.853c0.853,0.853,1.707,1.707,1.707,3.413v247.467
	c0,16.213,13.653,29.867,29.867,29.867h106.667v-386.56l-9.387,9.387c-1.707,1.707-4.267,1.707-5.973,0L147,59.207
	c-1.707-1.707-1.707-4.267,0-5.973c1.707-1.707,4.267-1.707,5.973,0l64.853,57.173L232.334,95.9l0,0l13.653-13.653l-87.04-71.68
	L127.374,42.14l0,0l0,0l0,0l0,0c0,0-0.853,0.853-1.707,0.853s-0.853,0-1.707,0l0,0l0,0l0,0l0,0l0,0
	c-16.213,0-32.427,7.68-49.493,16.213l-30.72,15.36L72.76,190.62v0.853c0,1.707-1.707,3.413-3.413,4.267
	c-2.56,0.853-4.267-0.853-5.12-3.413L36.067,77.98L9.614,90.78L42.04,220.487L89.827,214.513
	C88.974,214.513,89.827,214.513,89.827,214.513z M264.76,461.98c-5.12,0-8.533-3.413-8.533-8.533s3.413-8.533,8.533-8.533
	s8.533,3.413,8.533,8.533S269.88,461.98,264.76,461.98z M264.76,402.247c-5.12,0-8.533-3.413-8.533-8.533s3.413-8.533,8.533-8.533
	s8.533,3.413,8.533,8.533S269.88,402.247,264.76,402.247z M264.76,351.047c-5.12,0-8.533-3.413-8.533-8.533
	c0-5.12,3.413-8.533,8.533-8.533s8.533,3.413,8.533,8.533C273.294,347.633,269.88,351.047,264.76,351.047z M345.827,299.847
	c-0.853,0-1.707,0-1.707-0.853l-34.133-17.067c-1.707-0.853-2.56-2.56-2.56-3.413v-68.267c0-2.56,1.707-4.267,4.267-4.267h68.267
	c2.56,0,4.267,1.707,4.267,4.267v68.267c0,1.707-0.853,3.413-2.56,3.413l-34.133,17.067
	C347.534,299.847,346.68,299.847,345.827,299.847z M315.96,275.953l29.867,15.36l29.867-15.36v-61.44H315.96V275.953z
	 M264.76,291.313c-5.12,0-8.533-3.413-8.533-8.533c0-5.12,3.413-8.533,8.533-8.533s8.533,3.413,8.533,8.533
	C273.294,287.9,269.88,291.313,264.76,291.313z M264.76,231.58c-5.12,0-8.533-3.413-8.533-8.533s3.413-8.533,8.533-8.533
	s8.533,3.413,8.533,8.533S269.88,231.58,264.76,231.58z M264.76,171.847c-5.12,0-8.533-3.413-8.533-8.533s3.413-8.533,8.533-8.533
	s8.533,3.413,8.533,8.533S269.88,171.847,264.76,171.847z"/>
</svg>