<?xml version="1.0" encoding="iso-8859-1"?>
<!-- Uploaded to: SVG Repo, www.svgrepo.com, Generator: SVG Repo Mixer Tools -->
<svg height="800px" width="800px" version="1.1" id="Layer_1" xmlns="http://www.w3.org/2000/svg" xmlns:xlink="http://www.w3.org/1999/xlink" 
	 viewBox="0 0 504.32 504.32" xml:space="preserve">
<g transform="translate(1 1)">
	<path style="fill:#F2EDDA;" d="M165.4,310.893L165.4,310.893c-8.533-17.067,11.947-30.72,25.6-17.067
		c17.067,17.067,51.2,68.267,102.4,85.333l0,0l145.067,34.133c30.72,7.68,54.613,22.187,58.88,51.2h-1.707H191H3.267V327.96
		c0,0,63.147,39.253,136.533,0C139.8,327.96,156.867,319.427,165.4,310.893z M438.467,22.467
		c34.133,12.8,59.733,37.547,59.733,83.627s-26.453,70.827-59.733,83.627c0,0-58.88,18.773-145.067,18.773H105.667
		c-56.32,0-102.4-46.08-102.4-102.4s46.08-102.4,102.4-102.4H293.4C378.733,3.693,438.467,22.467,438.467,22.467z"/>
	<g>
		<path style="fill:#AE938D;" d="M208.067,148.76c0,14.507,11.093,25.6,25.6,25.6h-128c-36.693,0-68.267-28.16-68.267-68.267
			s31.573-68.267,68.267-68.267h128c-14.507,0-25.6,11.093-25.6,25.6V148.76z"/>
		<path style="fill:#AE938D;" d="M498.2,473.027v25.6H208.067L191,464.493h305.493h1.707C498.2,467.053,498.2,469.613,498.2,473.027
			z M191,464.493l-17.067,34.133H3.267v-34.133H191z"/>
	</g>
</g>
<path style="fill:#51565F;" d="M499.2,503.893H209.067c-1.707,0-3.413-0.853-3.413-2.56L192,474.88l-13.653,26.453
	c-0.853,1.707-2.56,2.56-3.413,2.56H4.267c-2.56,0-4.267-1.707-4.267-4.267V328.96c0-1.707,0.853-2.56,2.56-3.413
	c1.707-0.853,3.413-0.853,4.267,0c0.853,0,62.293,37.547,132.267,0c1.707-0.853,4.267,0,5.973,1.707
	c0.853,1.707,0,4.267-1.707,5.973c-60.587,33.28-116.053,11.947-133.973,3.413v125.44H465.92c2.56,0,4.267,1.707,4.267,4.267
	c0,2.56-1.707,4.267-4.267,4.267H199.68l12.8,25.6h283.307v-22.187c0-28.16-18.773-46.08-56.32-55.467l-144.213-34.133H294.4
	c-41.813-13.653-71.68-49.493-92.16-72.533c-5.12-5.973-8.533-10.24-11.947-13.653c-5.12-5.973-11.947-5.12-16.213-2.56
	c-3.413,2.56-5.973,7.68-2.56,14.507c0,0,42.667,58.88,92.16,83.627c1.707,0.853,2.56,3.413,1.707,5.973
	c-0.853,1.707-3.413,2.56-5.973,1.707c-51.2-25.6-93.867-84.48-95.573-87.04c-5.973-11.093-1.707-20.48,5.12-25.6
	s17.92-5.973,27.307,3.413c3.413,3.413,7.68,8.533,12.8,14.507c18.773,22.187,47.787,56.32,87.04,69.973l0,0l145.067,34.133
	c41.813,10.24,63.147,31.573,63.147,64v25.6C503.467,502.186,501.76,503.893,499.2,503.893z M8.533,495.36h163.84l12.8-25.6H8.533
	V495.36z M294.4,213.76H106.667C47.787,213.76,0,165.973,0,107.093S47.787,0.427,106.667,0.427H294.4
	c85.333,0,145.92,18.773,145.92,18.773l0,0c41.813,15.36,62.293,45.227,62.293,87.893s-21.333,71.68-62.293,87.893
	C440.32,194.986,379.733,213.76,294.4,213.76z M106.667,8.96c-53.76,0-98.133,44.373-98.133,98.133s44.373,98.133,98.133,98.133
	H294.4c84.48,0,143.36-17.92,143.36-18.773c38.4-14.507,57.173-40.96,57.173-79.36c0-39.253-18.773-65.707-57.173-79.36
	C435.2,26.88,376.32,8.96,294.4,8.96H106.667z M311.467,179.627h-204.8c-40.96,0-72.533-31.573-72.533-72.533
	S65.707,34.56,106.667,34.56h204.8c2.56,0,4.267,1.707,4.267,4.267s-1.707,4.267-4.267,4.267h-76.8
	c-11.947,0-21.333,9.387-21.333,21.333v85.333c0,11.947,9.387,21.333,21.333,21.333h76.8c2.56,0,4.267,1.707,4.267,4.267
	C315.733,177.92,314.027,179.627,311.467,179.627z M106.667,43.093c-35.84,0-64,28.16-64,64s28.16,64,64,64h107.52
	c-5.12-5.12-9.387-12.8-9.387-21.333V64.427c0-8.533,3.413-16.213,9.387-21.333H106.667z M345.6,162.56
	c-2.56,0-4.267-1.707-4.267-4.267v-102.4c0-2.56,1.707-4.267,4.267-4.267s4.267,1.707,4.267,4.267v102.4
	C349.867,160.853,348.16,162.56,345.6,162.56z M294.4,145.493c-2.56,0-4.267-1.707-4.267-4.267V72.96
	c0-2.56,1.707-4.267,4.267-4.267s4.267,1.707,4.267,4.267v68.267C298.667,143.786,296.96,145.493,294.4,145.493z M260.267,145.493
	c-2.56,0-4.267-1.707-4.267-4.267V72.96c0-2.56,1.707-4.267,4.267-4.267s4.267,1.707,4.267,4.267v68.267
	C264.533,143.786,262.827,145.493,260.267,145.493z"/>
</svg>