<?xml version="1.0" encoding="iso-8859-1"?>
<!-- Uploaded to: SVG Repo, www.svgrepo.com, Generator: SVG Repo Mixer Tools -->
<svg height="800px" width="800px" version="1.1" id="Layer_1" xmlns="http://www.w3.org/2000/svg" xmlns:xlink="http://www.w3.org/1999/xlink" 
	 viewBox="0 0 503.467 503.467" xml:space="preserve">
<g transform="translate(1 3)">
	<g>
		<path style="fill:#FFE079;" d="M272.067,448.302l4.267,30.72L498.2,461.956l-1.707-34.133L272.067,448.302z M229.4,448.302
			l-4.267,30.72L3.267,461.956l1.707-34.133L229.4,448.302z"/>
		<path style="fill:#FFE079;" d="M293.4,171.822c9.387,0,17.067,7.68,17.067,17.067s-7.68,17.067-17.067,17.067
			s-17.067-7.68-17.067-17.067S284.013,171.822,293.4,171.822z M208.067,146.222c9.387,0,17.067,7.68,17.067,17.067
			s-7.68,17.067-17.067,17.067S191,172.676,191,163.289S198.68,146.222,208.067,146.222z"/>
	</g>
	<path style="fill:#AE938D;" d="M208.067,52.356H293.4h85.333v34.133c0,59.733,45.227,102.4,104.96,102.4l12.8,238.933
		l-224.427,20.48l-21.333-139.947L229.4,448.302L4.973,427.822l12.8-238.933c59.733,0,104.96-42.667,104.96-102.4V52.356H208.067z"
		/>
	<path style="fill:#AAB1BA;" d="M476.867,52.356l6.827,136.533c-59.733,0-104.96-42.667-104.96-102.4V52.356H476.867z
		 M122.733,52.356v34.133c0,59.733-45.227,102.4-104.96,102.4L24.6,52.356H122.733z"/>
	<g>
		<path style="fill:#FFE079;" d="M476.867,52.356h-98.133H293.4h-85.333h-85.333H24.6C25.453,32.729,44.227,18.222,63,18.222
			h375.467C457.24,18.222,476.013,32.729,476.867,52.356"/>
		<path style="fill:#FFE079;" d="M293.4,171.822c-9.387,0-17.067,7.68-17.067,17.067s7.68,17.067,17.067,17.067
			s17.067-7.68,17.067-17.067S302.787,171.822,293.4,171.822z M208.067,146.222c-9.387,0-17.067,7.68-17.067,17.067
			s7.68,17.067,17.067,17.067s17.067-7.68,17.067-17.067S217.453,146.222,208.067,146.222z"/>
	</g>
</g>
<path style="fill:#51565F;" d="M277.333,486.289c-1.707,0-4.267-1.707-4.267-3.413l-21.333-142.507L230.4,482.876
	c0,2.56-2.56,4.267-4.267,3.413L4.267,469.222c-2.56,0-4.267-2.56-4.267-4.267l14.507-273.067c0-2.56,1.707-4.267,4.267-4.267
	c58.027,0,100.693-40.96,100.693-98.133V59.622h-89.6L25.6,157.756c0,2.56-1.707,4.267-4.267,4.267s-4.267-1.707-4.267-4.267
	l4.267-102.4l0,0c1.707-20.48,21.333-38.4,42.667-38.4h375.467c22.187,0,41.813,17.067,42.667,38.4l0,0l4.267,102.4
	c0,2.56-1.707,4.267-4.267,4.267s-4.267-1.707-4.267-4.267L473.6,59.622H384v29.867c0,57.173,41.813,98.133,100.693,98.133
	c2.56,0,4.267,1.707,4.267,4.267l12.8,238.933l0,0l1.707,34.133c0,2.56-1.707,4.267-4.267,4.267L277.333,486.289L277.333,486.289z
	 M251.733,307.089c1.707,0,4.267,1.707,4.267,3.413l24.747,166.4l213.333-16.213l-1.707-25.6l-181.76,17.067
	c-2.56,0-4.267-1.707-4.267-4.267l0,0c0-2.56,1.707-4.267,4.267-4.267l181.76-17.067l-12.8-231.253
	c-60.587-1.707-104.96-46.08-104.96-106.667V58.769h-76.8v111.787c9.387,1.707,17.067,10.24,17.067,20.48
	c0,11.947-9.387,21.333-21.333,21.333s-21.333-9.387-21.333-21.333c0-10.24,7.68-18.773,17.067-20.48V58.769h-76.8v86.187
	c9.387,1.707,17.067,10.24,17.067,20.48c0,11.947-9.387,21.333-21.333,21.333c-11.947,0-21.333-9.387-21.333-21.333
	c0-10.24,7.68-18.773,17.067-20.48V58.769h-76.8v29.867c0,60.587-44.373,104.96-104.96,106.667L10.24,426.556L192,442.769
	c2.56,0,4.267,1.707,4.267,4.267l0,0c0,2.56-2.56,4.267-4.267,4.267L10.24,435.089l-1.707,25.6l213.333,16.213l24.747-166.4
	C247.467,308.796,250.027,307.089,251.733,307.089z M294.4,179.089c-6.827,0-12.8,5.973-12.8,12.8c0,6.827,5.973,12.8,12.8,12.8
	s12.8-5.973,12.8-12.8C307.2,185.062,301.227,179.089,294.4,179.089z M209.067,153.489c-6.827,0-12.8,5.973-12.8,12.8
	c0,6.827,5.973,12.8,12.8,12.8s12.8-5.973,12.8-12.8C221.867,159.462,215.893,153.489,209.067,153.489z M379.733,51.089h93.013
	c-3.413-13.653-17.92-25.6-33.28-25.6H64c-16.213,0-29.867,11.093-33.28,25.6H379.733z"/>
</svg>