<?xml version="1.0" encoding="iso-8859-1"?>
<!-- Uploaded to: SVG Repo, www.svgrepo.com, Generator: SVG Repo Mixer Tools -->
<svg height="800px" width="800px" version="1.1" id="Layer_1" xmlns="http://www.w3.org/2000/svg" xmlns:xlink="http://www.w3.org/1999/xlink" 
	 viewBox="0 0 503.467 503.467" xml:space="preserve">
<g transform="translate(1 1)">
	<g>
		<path style="fill:#F2EDDA;" d="M497.347,233.667v93.867l0,0H243.053l32.427-153.6l-28.16-6.827l2.56-10.24V71.533h59.733l0,0
			h136.533C463.213,208.067,497.347,233.667,497.347,233.667z M249.88,71.533v85.333l-2.56,10.24L130.413,139.8L10.947,486.254
			c-5.12-5.973-8.533-13.653-8.533-22.187v-230.4c0,0,34.133-25.6,59.733-162.133h128l0,0H249.88z M497.347,327.533L497.347,327.533
			V344.6c0,17.067-8.533,34.133-25.6,51.2l-76.8,76.8c-17.067,17.067-34.133,25.6-51.2,25.6H207.213l35.84-170.667H497.347z"/>
		<path style="fill:#F2EDDA;" d="M275.48,173.933l-32.427,153.6L207.213,498.2l0,0H36.547c-10.24,0-19.627-4.267-25.6-11.947
			L130.413,139.8l116.907,27.307L275.48,173.933z"/>
	</g>
	<polygon style="fill:#ECF4F7;" points="309.613,3.267 309.613,71.533 309.613,71.533 249.88,71.533 190.147,71.533 190.147,3.267 	
		"/>
	<path style="fill:#FFD0A1;" d="M497.347,71.533v162.133c0,0-34.133-25.6-51.2-162.133H497.347z M2.413,71.533h59.733
		C36.547,208.067,2.413,233.667,2.413,233.667V71.533z"/>
	<path style="fill:#AE938D;" d="M190.147,3.267v68.267l0,0h-128H2.413V37.4c0-18.773,15.36-34.133,34.133-34.133H190.147
		L190.147,3.267z M497.347,37.4v34.133h-51.2H309.613V3.267h153.6C481.987,3.267,497.347,18.627,497.347,37.4z"/>
</g>
<path style="fill:#51565F;" d="M344.747,503.467h-102.4c-2.56,0-4.267-1.707-4.267-4.267c0-2.56,1.707-4.267,4.267-4.267l0,0h102.4
	c16.213,0,32.427-8.533,47.787-24.747l76.8-76.8c16.213-16.213,24.747-32.427,24.747-47.787V236.374
	c-7.68-6.827-35.84-41.813-51.2-159.573H255.147v81.067c0,2.56-1.707,4.267-4.267,4.267s-4.267-1.707-4.267-4.267V76.8h-55.467
	c-2.56,0-4.267-1.707-4.267-4.267v-64H37.547C21.333,8.533,7.68,22.187,7.68,38.4v29.867h55.467l0,0h93.867
	c2.56,0,4.267,1.707,4.267,4.267c0,2.56-1.707,4.267-4.267,4.267H66.56C44.373,195.413,14.507,229.547,7.68,236.374v228.693
	c0,17.067,12.8,29.867,29.867,29.867H204.8l33.28-158.72v-0.853l33.28-157.867l-137.387-32.427L41.813,414.72
	c-0.853,2.56-3.413,3.413-5.12,2.56c-2.56-0.853-3.413-3.413-2.56-5.12L128,139.093c0.853-1.707,2.56-3.413,5.12-2.56
	l145.067,34.133c2.56,0.853,3.413,2.56,3.413,5.12L248.32,332.8l216.747-8.533c2.56,0,4.267,1.707,4.267,4.267l0,0
	c0,2.56-1.707,4.267-4.267,4.267l-218.453,8.533l-33.28,158.72c0,1.707-2.56,3.413-4.267,3.413H38.4
	c-21.333,0-38.4-17.067-38.4-38.4v-230.4c0-1.707,0.853-2.56,1.707-3.413c0,0,32.427-26.453,57.173-154.453H8.534v98.133
	c0,2.56-1.707,4.267-4.267,4.267l0,0c-2.56,0-4.267-1.707-4.267-4.267V38.4C0,17.067,17.067,0,38.4,0H192l0,0h119.467
	c2.56,0,4.267,1.707,4.267,4.267v64H448l0,0h46.933V38.4c0-16.213-13.653-29.867-29.867-29.867H345.6
	c-2.56,0-4.267-1.707-4.267-4.267S343.04,0,345.6,0h119.467c21.333,0,38.4,17.067,38.4,38.4v136.533c0,2.56-1.707,4.267-4.267,4.267
	s-4.267-1.707-4.267-4.267V76.8h-42.667c17.067,128.853,48.64,154.453,49.493,154.453c0.853,0.853,1.707,1.707,1.707,3.413V345.6
	c0,17.92-9.387,36.693-26.453,54.613l-76.8,76.8C381.44,494.08,363.52,503.467,344.747,503.467z M195.413,68.267h110.933V8.533
	H195.413V68.267z M276.48,42.667h-51.2c-2.56,0-4.267-1.707-4.267-4.267c0-2.56,1.707-4.267,4.267-4.267h51.2
	c2.56,0,4.267,1.707,4.267,4.267C280.747,40.96,279.04,42.667,276.48,42.667z"/>
</svg>